<svg width="175" height="36" viewBox="0 0 174 18" fill="none" xmlns="http://www.w3.org/2000/svg">
<path d="M2.88281 15.0195C1.4375 13.6367 0.714844 11.5 0.714844 8.60938C0.714844 5.71094 1.4375 3.57031 2.88281 2.1875C4.33594 0.796875 6.51172 0.101562 9.41016 0.101562H12.0234C13.7969 0.101562 15.3633 0.5625 16.7227 1.48438C18.0898 2.40625 18.7734 3.66797 18.7734 5.26953C18.7734 5.73047 18.6367 6.0625 18.3633 6.26562C18.0898 6.46094 17.8242 6.55859 17.5664 6.55859H16.1719C15.4531 6.55859 14.8945 6.12891 14.4961 5.26953C13.918 4.03516 12.957 3.41797 11.6133 3.41797H9.52734C7.81641 3.41797 6.65625 3.78516 6.04688 4.51953C5.4375 5.25391 5.13281 6.61328 5.13281 8.59766C5.13281 10.582 5.4375 11.9453 6.04688 12.6875C6.65625 13.4219 7.81641 13.7891 9.52734 13.7891H11.8594C13.2031 13.7891 14.1602 13.1719 14.7305 11.9375C15.1289 11.0703 15.6914 10.6367 16.418 10.6367H17.8125C18.1797 10.6367 18.4688 10.7734 18.6797 11.0469C18.8984 11.3203 19.0078 11.6172 19.0078 11.9375C19.0078 13.5391 18.3281 14.8008 16.9688 15.7227C15.6094 16.6367 14.043 17.0938 12.2695 17.0938H9.41016C6.51172 17.0938 4.33594 16.4023 2.88281 15.0195ZM21.8789 16.1562C20.8477 15.4375 20.332 14.4219 20.332 13.1094C20.332 11.7969 20.8477 10.7891 21.8789 10.0859C22.918 9.38281 24.2539 9.03125 25.8867 9.03125H29.7656C29.7656 8.11719 29.5742 7.48047 29.1914 7.12109C28.8086 6.76172 28.1367 6.58203 27.1758 6.58203C26.2227 6.58203 25.5508 6.82031 25.1602 7.29688C24.7773 7.76562 24.3047 8 23.7422 8H21.9961C21.7852 8 21.6094 7.93359 21.4688 7.80078C21.3359 7.66016 21.2695 7.48828 21.2695 7.28516C21.2695 5.04297 23.3984 3.92188 27.6562 3.92188C29.5156 3.92188 31.0078 4.33984 32.1328 5.17578C33.2578 6.00391 33.8203 7.28906 33.8203 9.03125V16.2852C33.8203 16.4961 33.7539 16.668 33.6211 16.8008C33.4883 16.9336 33.3164 17 33.1055 17H30.8438C30.6328 17 30.4609 16.9336 30.3281 16.8008C30.1953 16.6602 30.1289 16.4883 30.1289 16.2852V15.9219C28.8945 16.8047 27.4688 17.2422 25.8516 17.2344C24.2422 17.2344 22.918 16.875 21.8789 16.1562ZM26.168 11.6914C25.6211 11.6914 25.1875 11.8242 24.8672 12.0898C24.5547 12.3555 24.3984 12.6992 24.3984 13.1211C24.3984 13.543 24.5625 13.8906 24.8906 14.1641C25.2188 14.4375 25.6836 14.5742 26.2852 14.5742C27.4883 14.5742 28.6484 14.2227 29.7656 13.5195V11.6914H26.168ZM35.9883 7.70703C35.9883 5.18359 38.0234 3.92188 42.0938 3.92188C46.375 3.92188 48.5156 5.04297 48.5156 7.28516C48.5156 7.48828 48.4492 7.66016 48.3164 7.80078C48.1836 7.93359 48.0117 8 47.8008 8H46.0547C45.4922 8 45.0195 7.76562 44.6367 7.29688C44.2539 6.82031 43.5 6.58203 42.375 6.58203C40.8281 6.58203 40.0547 6.95703 40.0547 7.70703C40.0547 8.05859 40.3555 8.35156 40.957 8.58594C41.5664 8.82031 42.3047 9.02734 43.1719 9.20703C44.0469 9.37891 44.918 9.60156 45.7852 9.875C46.6523 10.1484 47.3867 10.5859 47.9883 11.1875C48.5977 11.7812 48.9023 12.5352 48.9023 13.4492C48.9023 15.9727 46.7539 17.2344 42.457 17.2344C38.1602 17.2344 36.0117 16.1172 36.0117 13.8828C36.0117 13.6719 36.0781 13.5 36.2109 13.3672C36.3516 13.2266 36.5273 13.1562 36.7383 13.1562H38.4844C39.0469 13.1562 39.5195 13.3945 39.9023 13.8711C40.2852 14.3398 41.0391 14.5742 42.1641 14.5742C43.9531 14.5742 44.8477 14.1992 44.8477 13.4492C44.8477 13.0977 44.543 12.8047 43.9336 12.5703C43.332 12.3359 42.5938 12.1289 41.7188 11.9492C40.8438 11.7617 39.9727 11.5352 39.1055 11.2695C38.2461 10.9961 37.5117 10.5586 36.9023 9.95703C36.293 9.35547 35.9883 8.60547 35.9883 7.70703ZM51.082 16.2852V0.921875C51.082 0.710938 51.1484 0.539062 51.2812 0.40625C51.4219 0.265625 51.5938 0.195312 51.7969 0.195312H54.4219C54.625 0.195312 54.793 0.265625 54.9258 0.40625C55.0664 0.539062 55.1367 0.710938 55.1367 0.921875V5.62109C56.4805 4.48828 57.9102 3.92188 59.4258 3.92188C60.9492 3.92188 62.1875 4.38672 63.1406 5.31641C64.0938 6.23828 64.5703 7.65234 64.5703 9.55859V16.2852C64.5703 16.4883 64.5 16.6602 64.3594 16.8008C64.2266 16.9336 64.0547 17 63.8438 17H61.2305C61.0273 17 60.8555 16.9336 60.7148 16.8008C60.582 16.6602 60.5156 16.4883 60.5156 16.2852V9.55859C60.5156 7.69141 59.7695 6.75781 58.2773 6.75781C57.3008 6.75781 56.2539 7.31641 55.1367 8.43359V16.2852C55.1367 16.4883 55.0664 16.6602 54.9258 16.8008C54.793 16.9336 54.625 17 54.4219 17H51.7969C51.5938 17 51.4219 16.9336 51.2812 16.8008C51.1484 16.6602 51.082 16.4883 51.082 16.2852ZM67.6992 15.875V1.28516C67.6992 0.980469 67.8086 0.722656 68.0273 0.511719C68.2461 0.300781 68.5078 0.195312 68.8125 0.195312H82.3242C82.6289 0.195312 82.8867 0.304688 83.0977 0.523438C83.3164 0.742188 83.4258 1.00391 83.4258 1.30859V2.41016C83.4258 2.71484 83.3164 2.97656 83.0977 3.19531C82.8867 3.40625 82.6289 3.51172 82.3242 3.51172H72.1172V7.63672H80.4258C80.7305 7.63672 80.9883 7.74609 81.1992 7.96484C81.418 8.18359 81.5273 8.44141 81.5273 8.73828V9.85156C81.5273 10.1562 81.418 10.418 81.1992 10.6367C80.9883 10.8477 80.7305 10.9531 80.4258 10.9531H72.1172V15.875C72.1172 16.1953 72.0078 16.4648 71.7891 16.6836C71.5781 16.8945 71.3203 17 71.0156 17H68.8125C68.5078 17 68.2461 16.8945 68.0273 16.6836C67.8086 16.4648 67.6992 16.1953 67.6992 15.875ZM85.1133 16.2852V0.921875C85.1133 0.710938 85.1797 0.539062 85.3125 0.40625C85.4531 0.265625 85.625 0.195312 85.8281 0.195312H88.4531C88.6562 0.195312 88.8242 0.265625 88.957 0.40625C89.0977 0.539062 89.168 0.710938 89.168 0.921875V16.2852C89.168 16.4883 89.0977 16.6602 88.957 16.8008C88.8242 16.9336 88.6562 17 88.4531 17H85.8281C85.625 17 85.4531 16.9336 85.3125 16.8008C85.1797 16.6602 85.1133 16.4883 85.1133 16.2852ZM93.1523 15.5469C91.9336 14.4219 91.3242 12.7656 91.3242 10.5781C91.3242 8.38281 91.9336 6.72656 93.1523 5.60938C94.3711 4.48438 96.1211 3.92188 98.4023 3.92188C100.691 3.92188 102.445 4.48438 103.664 5.60938C104.883 6.72656 105.492 8.38281 105.492 10.5781C105.492 12.7656 104.883 14.4219 103.664 15.5469C102.445 16.6719 100.691 17.2344 98.4023 17.2344C96.1211 17.2344 94.3711 16.6719 93.1523 15.5469ZM96.1172 7.53125C95.6328 8.16406 95.3906 9.17578 95.3906 10.5664C95.3906 11.957 95.6328 12.9727 96.1172 13.6133C96.6016 14.2539 97.3633 14.5742 98.4023 14.5742C99.4492 14.5742 100.215 14.2539 100.699 13.6133C101.191 12.9727 101.438 11.957 101.438 10.5664C101.438 9.17578 101.191 8.16406 100.699 7.53125C100.215 6.89844 99.4492 6.58203 98.4023 6.58203C97.3633 6.58203 96.6016 6.89844 96.1172 7.53125ZM106.441 5.1875C106.379 4.98438 106.344 4.81641 106.336 4.68359C106.336 4.33984 106.531 4.16406 106.922 4.15625H109.102C109.469 4.15625 109.797 4.25 110.086 4.4375C110.375 4.61719 110.574 4.86719 110.684 5.1875L112.605 11.5039L114.504 5.1875C114.715 4.5 115.16 4.15625 115.84 4.15625H117.914C118.602 4.15625 119.047 4.5 119.25 5.1875L121.148 11.5039L123.07 5.1875C123.18 4.86719 123.379 4.61719 123.668 4.4375C123.957 4.25 124.285 4.15625 124.652 4.15625H126.832C127.215 4.15625 127.41 4.33203 127.418 4.68359C127.418 4.82422 127.383 4.99219 127.312 5.1875L123.762 15.9688C123.652 16.2891 123.457 16.543 123.176 16.7305C122.895 16.9102 122.594 17 122.273 17H120.621C120.301 17 119.996 16.9062 119.707 16.7188C119.418 16.5234 119.227 16.2734 119.133 15.9688L116.883 8.98438L114.621 15.9688C114.527 16.2734 114.336 16.5234 114.047 16.7188C113.758 16.9062 113.453 17 113.133 17H111.48C111.16 17 110.859 16.9102 110.578 16.7305C110.297 16.543 110.102 16.2891 109.992 15.9688L106.441 5.1875Z" fill="black"/>
<path d="M129.34 15.8984V1.30859C129.34 1.00391 129.445 0.742188 129.656 0.523438C129.867 0.304688 130.125 0.195312 130.43 0.195312H139.371C144.098 0.195312 146.461 2.375 146.461 6.73438C146.461 11.0859 144.098 13.2617 139.371 13.2617H133.758V15.8984C133.758 16.2031 133.648 16.4648 133.43 16.6836C133.219 16.8945 132.961 17 132.656 17H130.453C130.148 17 129.887 16.8945 129.668 16.6836C129.449 16.4648 129.34 16.2031 129.34 15.8984ZM133.758 9.94531H138.035C139.348 9.94531 140.344 9.72656 141.023 9.28906C141.703 8.84375 142.043 7.99219 142.043 6.73438C142.043 5.46875 141.703 4.61719 141.023 4.17969C140.344 3.73438 139.348 3.51172 138.035 3.51172H133.758V9.94531ZM157.277 7.13281L155.473 7.0625C154.418 7.0625 153.41 7.64062 152.449 8.79688V16.2852C152.449 16.4961 152.379 16.668 152.238 16.8008C152.105 16.9336 151.938 17 151.734 17H149.109C148.898 17 148.727 16.9336 148.594 16.8008C148.461 16.668 148.395 16.4961 148.395 16.2852V4.88281C148.395 4.67188 148.461 4.5 148.594 4.36719C148.734 4.22656 148.906 4.15625 149.109 4.15625H151.734C151.945 4.15625 152.117 4.22656 152.25 4.36719C152.383 4.5 152.449 4.67188 152.449 4.88281V5.62109C153.246 5.04297 154.012 4.61719 154.746 4.34375C155.488 4.0625 156.457 3.92188 157.652 3.92188C157.863 3.92188 158.035 3.99219 158.168 4.13281C158.309 4.26562 158.379 4.43359 158.379 4.63672V6.41797C158.379 6.62891 158.309 6.80078 158.168 6.93359C158.035 7.06641 157.863 7.13281 157.652 7.13281H157.277ZM161.168 15.5469C159.949 14.4219 159.34 12.7656 159.34 10.5781C159.34 8.38281 159.949 6.72656 161.168 5.60938C162.387 4.48438 164.137 3.92188 166.418 3.92188C168.707 3.92188 170.461 4.48438 171.68 5.60938C172.898 6.72656 173.508 8.38281 173.508 10.5781C173.508 12.7656 172.898 14.4219 171.68 15.5469C170.461 16.6719 168.707 17.2344 166.418 17.2344C164.137 17.2344 162.387 16.6719 161.168 15.5469ZM164.133 7.53125C163.648 8.16406 163.406 9.17578 163.406 10.5664C163.406 11.957 163.648 12.9727 164.133 13.6133C164.617 14.2539 165.379 14.5742 166.418 14.5742C167.465 14.5742 168.23 14.2539 168.715 13.6133C169.207 12.9727 169.453 11.957 169.453 10.5664C169.453 9.17578 169.207 8.16406 168.715 7.53125C168.23 6.89844 167.465 6.58203 166.418 6.58203C165.379 6.58203 164.617 6.89844 164.133 7.53125Z" fill="#F24E1E"/>
</svg>
